<svg xmlns="http://www.w3.org/2000/svg" xmlns:xlink="http://www.w3.org/1999/xlink" id="businesswoman-filtering-profit-from-marketing-and-management" x="0" y="0" enable-background="new 0 0 480 480" version="1.1" viewBox="0 0 480 480" xml:space="preserve"><g><g><g><g><g><g><g><ellipse cx="234.3" cy="443.1" fill="#f7f7ff" rx="225" ry="10"></ellipse></g></g></g></g></g><g><g><g><g><g><circle cx="231.6" cy="421.4" r="20.9" fill="#ffcf53"></circle></g></g><g><g><path fill="#ffb636" d="M242.4,432.2c-5.9,5.9-15.3,5.9-21.3,0.3c-0.1-0.1-0.2-0.2-0.3-0.3c-5.9-5.9-5.9-15.6,0-21.6
								c4.7-4.7,11.9-5.7,17.6-2.9c1.4,0.7,2.8,1.7,4,2.9C248.3,416.6,248.3,426.3,242.4,432.2z"></path></g></g></g><g><g><g><defs><path id="SVGID_1_" d="M231.1,430.2v-1.5c-1.9-0.2-3.7-1-5.2-2.3l1.5-1.8c1.2,1,2.4,1.6,3.7,1.8v-4.1
									c-1.6-0.4-2.8-0.9-3.5-1.5c-0.7-0.6-1.1-1.5-1.1-2.8s0.4-2.2,1.3-3c0.9-0.8,2-1.2,3.3-1.3v-1.1h1.4v1.1
									c1.5,0.1,3,0.6,4.4,1.6l-1.4,1.9c-0.9-0.7-1.9-1.1-3-1.2v4h0.1c1.6,0.4,2.8,0.9,3.6,1.5c0.8,0.6,1.1,1.6,1.1,2.8
									c0,1.2-0.4,2.2-1.3,3c-0.9,0.8-2,1.2-3.5,1.3v1.5H231.1z M229.6,416.5c-0.4,0.3-0.5,0.7-0.5,1.2s0.1,0.8,0.4,1.1
									c0.3,0.3,0.8,0.5,1.6,0.8V416C230.5,416,230,416.2,229.6,416.5z M234.1,425.8c0.4-0.3,0.6-0.7,0.6-1.2
									c0-0.5-0.2-0.9-0.5-1.2c-0.3-0.3-0.9-0.6-1.7-0.8v3.8C233.2,426.3,233.7,426.1,234.1,425.8z"></path></defs><clipPath id="SVGID_2_"><use overflow="visible" xlink:href="#SVGID_1_"></use></clipPath><g clip-path="url(#SVGID_2_)"><g><rect width="30.9" height="30.9" x="235" y="403.4" fill="none"></rect></g><g><rect width="30.9" height="30.9" x="235" y="403.4" fill="#fff"></rect></g></g><g clip-path="url(#SVGID_2_)"><g><rect width="30.9" height="30.9" x="204.1" y="403.4" fill="none"></rect></g><g><rect width="30.9" height="30.9" x="204.1" y="403.4" fill="#fff"></rect></g></g><g clip-path="url(#SVGID_2_)"><g><rect width="30.9" height="30.9" x="204.1" y="403.4" fill="none"></rect></g></g><g clip-path="url(#SVGID_2_)"><g><rect width="30.9" height="30.9" x="204.1" y="403.4" fill="none"></rect></g></g></g></g></g></g><g><g><path fill="#ffa428" d="M242.4,432.2c-5.9,5.9-15.3,5.9-21.3,0.3c0.2,0,0.4,0,0.7,0c1.4,0,2.9-0.2,4.3-0.3c1.7-0.2,3.3-0.5,5-0.8
						c2.6-0.6,5.3-1.4,7.3-3.2c3.1-2.7,4-7.3,3.3-11.3c-0.5-3.1-1.8-6.1-3.2-8.9c1.4,0.7,2.8,1.7,4,2.9
						C248.3,416.6,248.3,426.3,242.4,432.2z"></path></g></g></g><g><g><g><path fill="#f7f7ff" d="M328.2,405.6c15.2,9.5,30.8,22.2,48.6,20.1c15.1-1.8,27.3-14.5,31.9-28.9c4.7-14.4,2.9-30.2-1-44.9
						c-3.9-14.7-10-28.7-13.9-43.3c-4.7-17.4-6-37.6,4.9-52c18.7-24.7,62.7-19.8,78.1-46.7c10.2-17.9,1.6-41.1-11.8-56.6
						c-26.4-30.4-71.5-43-109.8-30.6c-19.8,6.4-37.2,18.7-55.3,29.1S261.9,171.2,241,170c-18.4-1-35.5-9.9-50.6-20.4
						c-15.2-10.5-29.1-22.8-45-32.1s-34.5-15.6-52.7-12.5c-18.2,3.1-35.2,17.6-36.6,36c-2.2,27.6,28.3,47.7,32.2,75.2
						c4.3,30-24.3,55.6-26.4,85.9c-1.5,21.5,11.3,42.2,28.6,55s38.7,18.9,59.9,22.9c30.1,5.6,61.9,9,92.1,3.1
						C271.2,377.5,304.3,390.5,328.2,405.6z"></path></g></g></g><g><g><g><path fill="#e1e0ff" d="M384.5,164.9L259.1,333.6v90.6l-0.2-0.2c-0.9,2.9-4.9,2.9-10.7,0.3c-4-1.8-8.8-4.8-13.9-8.9
						c-5.2-4.1-10-8.7-13.9-13.2c-6.6-7.4-10.9-14.6-10.9-18.9v-49.7h0L84,164.9H384.5z"></path></g><g opacity=".27"><path fill="#f7f7ff" d="M318.7,164.9l-70.5,168.7v90.7c-4-1.8-8.8-4.8-13.9-8.9c-5.2-4.1-10-8.7-13.9-13.2v-68.6h0l-70.5-168.7
						H318.7z"></path></g></g><g><path fill="#d6d4f6" d="M84,163.8c0,17.4,67.3,31.5,150.3,31.5s150.3-14.1,150.3-31.5V159L84,158.8V163.8z"></path></g><g><ellipse cx="234.3" cy="159" fill="#f7f7ff" rx="150.3" ry="31.5"></ellipse></g><g><path fill="#e1e0ff" d="M379.9,159c0,2.4-4.6,7.2-19.8,12.3c-5.4,1.8-12.2,3.6-20.5,5.4c-28.1,5.9-65.5,9.1-105.3,9.1
					c-7.1,0-14.2-0.1-21.1-0.3c-31.8-0.9-61.1-4-84.2-8.8c-8.4-1.8-15.1-3.6-20.5-5.4c-15.2-5.1-19.8-10-19.8-12.3
					c0-3.2,8.4-11,40.3-17.7c28.1-5.9,65.5-9.1,105.3-9.1c34.9,0,67.9,2.5,94.5,7.1c3.8,0.6,7.4,1.3,10.8,2.1
					C371.5,148,379.9,155.8,379.9,159z"></path></g><g><path fill="#d6d4f6" d="M360.1,171.4c-5.4,1.8-12.2,3.6-20.5,5.4c-28.1,5.9-65.5,9.1-105.3,9.1c-7.1,0-14.2-0.1-21.1-0.3
					c-31.8-0.9-61.1-4-84.2-8.8c-8.4-1.8-15.1-3.6-20.5-5.4c5.4-1.8,12.2-3.6,20.5-5.4c28.1-5.9,65.5-9.1,105.3-9.1
					c34.9,0,67.9,2.5,94.5,7.1c3.8,0.6,7.4,1.3,10.8,2.1C347.9,167.7,354.7,169.6,360.1,171.4z"></path></g><g opacity=".28"><path fill="#c5c2f2" d="M379.9,159c0,3.2-8.4,11-40.3,17.7c-28.1,5.9-65.5,9.1-105.3,9.1c-7.1,0-14.2-0.1-21.1-0.3
					c41-8,80.5-23.7,115.6-46.3c3.8,0.6,7.4,1.3,10.8,2.1C371.5,148,379.9,155.8,379.9,159z"></path></g></g><g><g><path fill="#f7f7ff" d="M261.9,134.4L220.4,179c-2.1,2.3-5.7,2.4-8,0.3l-37.7-35.1c-2.3-2.1-2.4-5.7-0.3-8l41.5-44.6
					c2.1-2.3,5.7-2.4,8-0.3l37.7,35.1C263.9,128.5,264,132.1,261.9,134.4z"></path></g><g><g><path fill="#ffa6bb" d="M244.1,126.7L244.1,126.7l-23.1,7.1l9.3-22.3C237.2,114.4,242,120.1,244.1,126.7z"></path></g><g><path fill="#e8468a" d="M217.8,131.8l-9.6-22.1c5.8-2.5,12.6-2.8,18.9-0.1L217.8,131.8z"></path></g><g><path fill="#d6d4f6" d="M216.4,137.9l23.1-7.1c1.6,5.2,1.5,11-0.8,16.4c-5.2,12.3-19.3,18.1-31.6,12.9
						c-12.3-5.2-18.1-19.3-12.9-31.6c2.5-6,7.1-10.4,12.7-12.8L216.4,137.9z"></path></g></g></g><g><g><g><path fill="#3e22b3" d="M112,443c-0.1,0-0.2,0-0.3,0c-0.5-0.1-0.8-0.7-0.7-1.2l61.3-220.2c0.1-0.5,0.7-0.8,1.2-0.7
						c0.5,0.1,0.8,0.7,0.7,1.2L113,442.3C112.9,442.7,112.5,443,112,443z"></path></g><g><path fill="#3e22b3" d="M60.9,443c-0.1,0-0.2,0-0.3,0c-0.5-0.1-0.8-0.7-0.7-1.2l61.3-220.2c0.1-0.5,0.7-0.8,1.2-0.7
						c0.5,0.1,0.8,0.7,0.7,1.2L61.8,442.3C61.7,442.7,61.3,443,60.9,443z"></path></g></g><g><g><path fill="#3e22b3" d="M168.3,241.1h-51.2c-0.6,0-1-0.4-1-1s0.4-1,1-1h51.2c0.6,0,1,0.4,1,1S168.8,241.1,168.3,241.1z"></path></g><g><path fill="#3e22b3" d="M158.1,277.9h-51.2c-0.6,0-1-0.4-1-1s0.4-1,1-1h51.2c0.6,0,1,0.4,1,1S158.6,277.9,158.1,277.9z"></path></g><g><path fill="#3e22b3" d="M147.8,314.6H96.7c-0.6,0-1-0.4-1-1s0.4-1,1-1h51.2c0.6,0,1,0.4,1,1S148.4,314.6,147.8,314.6z"></path></g><g><path fill="#3e22b3" d="M137.6,351.3H86.4c-0.6,0-1-0.4-1-1s0.4-1,1-1h51.2c0.6,0,1,0.4,1,1S138.2,351.3,137.6,351.3z"></path></g><g><path fill="#3e22b3" d="M127.4,388H76.2c-0.6,0-1-0.4-1-1s0.4-1,1-1h51.2c0.6,0,1,0.4,1,1S127.9,388,127.4,388z"></path></g><g><path fill="#3e22b3" d="M117.1,424.8H66c-0.6,0-1-0.4-1-1s0.4-1,1-1h51.2c0.6,0,1,0.4,1,1S117.7,424.8,117.1,424.8z"></path></g></g></g><g><g><g><g><g><g><path fill="#ffa6bb" d="M412.2,331.3c1.6,4.1,2.4,8.4,2.4,12.8c0.1,15.5-0.9,30.9-2.9,46.3c-2.7,10.3-4.3,17.9-5.7,23.8
									c-0.7,2.9-1.2,5.3-1.8,7.5c-1.1,4.1-2.3,7-4,9.7c-0.9,1.3-2.1,2.5-3.6,3.5c-1.4,1-3,1.8-4.5,2.4c-5.6,2.3-10.9,2-6.5-2.4
									c0.9-0.8,1.6-2,2.3-3.5c0.3-0.7,0.6-1.4,0.9-2.1c4.3-11.3,6.1-33.8,9.4-47.7c4.1-17-8.4-52.1-8.6-52.7
									c-0.2-0.7,0.4-9.8,0.6-10.7c0-0.2,0.1-0.3,0.1-0.4h25l-1,4l-0.5,2.2l-0.4,1.8L412.2,331.3
									C412.2,331.3,412.2,331.3,412.2,331.3z"></path></g></g><g><path fill="#f58ea2" d="M414.7,344.1c0.1,15.5-0.9,30.9-2.9,46.3c-2.7,10.3-4.3,17.9-5.7,23.8c-2.6-0.3-1.5-6-1.3-7.7
								c2.2-18.1,5.3-36.1,5.7-54.4c0.2-10.3-1.7-20.9-2-31.2c1.8,1.6,3.5,3.2,5.1,4.9l-1.3,5.6c0,0,0,0,0,0.1
								C413.8,335.4,414.6,339.7,414.7,344.1z"></path></g><g><path fill="#ffa6bb" d="M394.9,417.3c-1.6,3.3-3.3,6.6-5.5,9.5c4.6-32.9,5.2-66.4,1.8-99.4l11.8,12.7
								C409.2,365.8,406.3,393.5,394.9,417.3z"></path></g><g><path fill="#0e0063" d="M400.5,438c-3.2,6.1-17.9,4.1-18.8,1.7c-1-2.4,3.7-6.9,5.2-8.1c1.5-1.2,3.9,1.6,7.3,0.6
								c3.4-1,3.4-2.7,5.4-8.3s7.9-15.9,7.9-15.9c4.3,1.6,3.3,25.7,1.2,25.6l-2.4-12.5C406.1,421.7,403.6,432.1,400.5,438z"></path></g></g></g><g><g><g><g><path fill="#ffa6bb" d="M435.6,331.3c1.6,4.1,2.4,8.4,2.4,12.8c0.1,15.5-0.9,30.9-2.9,46.3c-2.7,10.3-4.3,17.9-5.7,23.8
									c-0.7,2.9-1.2,5.3-1.8,7.5c-1.1,4.1-2.3,7-4,9.7c-0.9,1.3-2.1,2.5-3.6,3.5c-1.4,1-3,1.8-4.5,2.4c-5.6,2.3-10.9,2-6.5-2.4
									c0.9-0.8,1.6-2,2.3-3.5c0.3-0.7,0.6-1.4,0.9-2.1c4.3-11.3,6.1-33.8,9.4-47.7c4.1-17-8.4-52.1-8.6-52.7
									c-0.2-0.7,0.4-9.8,0.6-10.7c0-0.2,0.1-0.3,0.1-0.4h25l-1,4l-0.5,2.2l-0.4,1.8L435.6,331.3
									C435.6,331.3,435.6,331.3,435.6,331.3z"></path></g></g><g><path fill="#f58ea2" d="M438.1,344.1c0.1,15.5-0.9,30.9-2.9,46.3c-2.7,10.3-4.3,17.9-5.7,23.8c-2.6-0.3-1.5-6-1.3-7.7
								c2.2-18.1,5.3-36.1,5.7-54.4c0.2-10.3-1.7-20.9-2-31.2c1.8,1.6,3.5,3.2,5.1,4.9l-1.3,5.6c0,0,0,0,0,0.1
								C437.2,335.4,438,339.7,438.1,344.1z"></path></g><g><path fill="#ffa6bb" d="M418.3,417.3c-1.6,3.3-3.3,6.6-5.5,9.5c4.6-32.9,5.2-66.4,1.8-99.4l11.8,12.7
								C432.6,365.8,429.7,393.5,418.3,417.3z"></path></g><g><path fill="#0e0063" d="M423.9,438c-3.2,6.1-17.9,4.1-18.8,1.7c-1-2.4,3.7-6.9,5.2-8.1c1.5-1.2,3.9,1.6,7.3,0.6
								c3.4-1,3.4-2.7,5.4-8.3s7.9-15.9,7.9-15.9c4.3,1.6,3.3,25.7,1.2,25.6l-2.4-12.5C429.5,421.7,427,432.1,423.9,438z"></path></g></g></g><g><path fill="#0e0063" d="M388.2,328.7c19.4,13.9,51.9-3.8,51.9-3.8c-0.7-28.5,7.4-41.6,8.6-56.9c1.1-15.3-8.7-26-8.7-26
						s-48.9,1.4-50.9,3.2C387.1,247,388.2,328.7,388.2,328.7z"></path></g></g><g><g><path fill="#0e0063" d="M386.1,141.3c0,0-5.7,4.9-5.9,12.7c-0.2,7.8,10.8,12.8,15.9,10.5c5-2.3,10.8-23.1,10.8-23.1l-11.2-8.5
						l-5.1,1L386.1,141.3z"></path></g><g><g><g><g><g><g><g><g><path fill="#e1e0ff" d="M378.9,194.8c2.6,4.9,6.2,9.1,9,12.9c0.9,1.2,1.8,2.5,2.5,3.7c1.3,2.4,2.2,4.7,2.1,7.1
													c-0.1,2.6-1.9,25.5-3.8,28.8c7.4,3.9,17.9,3.7,29.7,1.7c7.3-1.2,15.1-3.1,23.1-5.2c-4.7-9.1-8.3-15.9-11.1-25.9
													c-3.7-13.1,8.2-31.8,3-48.5c-0.4-1.2-0.8-2.5-1.3-3.6c-0.6-1.5-1.2-2.9-1.8-4.3c-5.8-12.4-14-20.7-14-20.7
													s-13.6,12.8-16.1,11.5c-1.1-0.6-6.6,6-11.8,14.2C382.1,176.7,376,189.5,378.9,194.8z"></path></g><g><path fill="#d6d4f6" d="M410.6,180.1c-0.8,5.1-4,9.5-7.5,13.3c-3.4,3.8-7.3,7.4-10.1,11.7c-1.2,1.9-2.1,4-2.6,6.3
													c-0.7-1.2-1.5-2.5-2.5-3.7c-2.8-3.9-6.4-8-9-12.9c-2.9-5.3,3.2-18.1,9.6-28.3c3.6,0.2,7.2,0.8,10.7,1.3
													c3.5,0.5,7.2,1.3,9.5,4C410.6,174.1,411,177.2,410.6,180.1z"></path></g></g></g><g><path fill="#ffa6bb" d="M392.2,193.6c-5-2.6-4.7-5.4-4.6-6.2c0-0.1,0.1-0.2,0.1-0.2s-38.3-1.1-46.1-1.9
											c-7.8-0.9-35.2-27.5-39.6-27.5c-4.3,0-17.7,10.2-26.6,4c-8.7-6,16.9-12.1,18.3-12.4c-0.4,0.1-3.5,0.4-6.5-3.2
											c-3.2-3.8,10,0.1,14.4,0.5c4.4,0.3,40.5,19.3,44.6,20.2c4.1,0.9,42.4-5,52.6-1.2c0.6,0.2,1.1,0.4,1.6,0.7
											c8.9,3.8,11.2,8.9,9.6,19.7C408.4,197.5,398.1,196.7,392.2,193.6z"></path></g><g><path fill="#f58ea2" d="M392.2,193.6c-5-2.6-4.7-5.4-4.6-6.2c2.6,1.9,5.6,3.5,8.8,4c3.3,0.5,6.9-0.2,9.4-2.5
											c2.5-2.3,3.5-5.9,3-9.3c-0.4-3.3-2.1-6.4-4.3-9c-1.3-1.5-2.7-2.9-4.2-4.2c8.9,3.8,11.2,8.9,9.6,19.7
											C408.4,197.5,398.1,196.7,392.2,193.6z"></path></g></g></g></g></g></g><g><g><path fill="#ed8a74" d="M393.4,137.8c0,0,0.4-6.8,0.6-7.1c0.2-0.3,5.3-2.5,5.3-2.5l4.4,1C400.3,132.4,396.7,135.5,393.4,137.8z"></path></g><g><path fill="#ffc1cd" d="M413.7,140.4c-8.2,5.2-17.4,11.5-21,11.7c0.1-2.8,1.1-6,1-8.8l10.4-10.5l-0.2-3.6l4.4,1l2.6,0.6
							L413.7,140.4z"></path></g><g><path fill="#ffc1cd" d="M414.7,115.1c-0.1,1.7-3.9,6.6-8.7,11.7c-0.7,0.7-1.3,1.4-2.1,2.1c-0.1,0.1-0.2,0.2-0.3,0.3
							c-3.3,3.3-7,6.4-10.3,8.7c-1.1,0.7-2.1,1.4-3.1,1.9c-0.4,0.2-0.7,0.4-1.1,0.6c-2,0.9-3.7,1.3-4.9,0.9c-6.9-2.6-8-19-7.8-20
							c0.2-1-3.6,0.2-4-1.7c-0.5-1.9,5.6-7.5,5.1-10.3c-0.5-2.8,0.7-7.2,0.7-7.2l5.8-5.4l16.7-2.4c0,0,10.8,6.4,11.5,7.3
							C412.9,102.2,415,110.8,414.7,115.1z"></path></g><g><path fill="#281c1a" d="M382.1,112.1c0.1,1-0.2,1.8-0.7,1.8c-0.5,0-0.9-0.7-1-1.7c-0.1-1,0.2-1.8,0.7-1.8
							C381.5,110.4,382,111.2,382.1,112.1z"></path></g><g><path fill="#f58ea2" d="M404.1,132.8l-10.4,10.5c0-0.4,0-0.8-0.1-1.2c0,0,0,0,0,0c-0.1-2.5-0.3-4.3-0.3-4.3
							c3.3-2.3,7-5.4,10.3-8.7l0.3,0.1L404.1,132.8z"></path></g><g><path fill="#fff" d="M378.9,131.4c0,0,1.8,1.3,4.3-0.9c2.5-2.2,1.5-3.1,1.5-3.1L378.9,131.4z"></path></g><g><path fill="#e25d47" d="M378.1,107.7c0.5-0.6,1.4-0.8,2.2-0.9c0.8-0.1,1.6,0.1,2.4,0.3c0.8,0.3,1.5,0.8,2,1.4
							c0.5,0.6,0.8,1.4,0.9,2.2c-0.8-1.4-1.8-2.3-3.2-2.8c-0.7-0.2-1.4-0.4-2.1-0.5C379.5,107.4,378.8,107.4,378.1,107.7z"></path></g><g><path fill="#e8468a" d="M392.7,152.1c0,0-0.9,6.3,2.6,8.1c3.5,1.8,10.7-7.3,13.2-14.2l-3.9-0.2L392.7,152.1z"></path></g><g><path fill="#0e0063" d="M446,160.8c-2.7,3.6-6.5,6-11.6,5.9c-18.2-0.2-32.7-20.1-30.8-28c1.9-8-2.9-20.8-12-23
							c-9.1-2.2-13.3-13.9-13.3-13.9c-5-4.3-7.4-7.8-7.9-10.5c-2.1-10.8,24.7-10.8,35.8-7.5c14,4,14.7,24.3,16,29.5
							c1.3,5.2,19.6,6.7,26,14.8C452.6,133.9,453,151.5,446,160.8z"></path></g><g><path fill="#5731eb" d="M399.5,121.5c0,0-7-35.2-18.5-38.9c0,0,3.5-2.1,8.6-0.7c0,0,19.1,19.3,12.6,44.5
							C402.2,126.4,401.4,123.6,399.5,121.5z"></path></g></g></g><g><g><path fill="#d6d4f6" d="M430.5,217.9c-3.7-13.1,8.2-31.8,3-48.5c-0.4-1.2-0.8-2.5-1.3-3.6c-1,1.2-1.8,2.6-2.6,3.9
						c-3.8,6.6-7.6,13.3-11.4,19.9c-0.8,1.5-1.7,3.1-1.6,4.8c0.1,2.1,1.8,4.2,1.2,6.2c-1.1,3.4-7.4,3.3-7.5,6.9
						c-0.1,2.7,3.8,4.3,3.6,7c-0.3,3.2-6.1,3.7-6.3,6.9c-0.2,3.7,7.1,4.3,6.9,8c-0.2,2.9-4.8,3.5-5.6,6.2c-0.6,2.3,1.8,4.3,4,5.1
						c2.3,0.8,4.9,1.4,6.1,3.6c0.8,1.5,0.5,3.2-0.4,4.7c7.3-1.2,15.1-3.1,23.1-5.2"></path></g></g></g><g><g><g><g><path fill="#53b0a6" d="M42.8,387.2c1.6-0.9,3.4-1.1,5.2-1.3c1.8-0.2,3.6-0.5,5.1-1.4c1.4-0.9,2.4-2.3,3.4-3.7
							c7.4-10.9,13.5-22.7,18.1-35.1c-0.1,0.4-1.9,1-2.3,1.2c-0.8,0.5-1.6,1-2.4,1.5c-1.6,1-3.2,2.1-4.8,3.3c-3,2.3-5.8,4.8-8.4,7.6
							c-5.2,5.5-9.5,12-12.6,18.9c-0.9,1.9-1.6,3.9-2.3,5.9c-0.3,1-2.1,5.2-1.3,5.8C40.9,388.7,41.6,387.8,42.8,387.2z"></path></g><g><path fill="#53b0a6" d="M16.5,349.7c0.1,0.2,0.2,0.5,0.2,0.7c1.5,4.5,4,8.7,7.9,11.4c2.2,1.5,4.8,2.6,6.8,4.4
							c0.9,0.9,1.7,1.9,2.3,3c1.1,2.1,2.2,4.2,3.6,6.1c0.8,1.1,1.5,2.2,2.3,3.3l0,0c0.6-1,0.9-2.1,0.8-3.3
							c-0.2-3.8-0.5-7.7-0.7-11.5c0-0.3,0-0.7-0.1-1c-0.3-3.6-0.7-7.2-2.5-10.4c-2-3.5-5.4-5.9-8.7-8.1c-4.6-3.2-9.3-6.3-13.9-9.5
							C14.7,340,15.1,345,16.5,349.7z"></path></g><g><g><path fill="#53b0a6" d="M3.6,383.3c2.7,2.3,6,4,9.6,4.7c5.6,1.1,11.7,0,17.1,2c1.3,0.5,2.6,1.2,3.8,2.1c0.8,0.6,1.7,1.8,2.7,2
								c-0.3-1.6-1.6-3.4-2.3-4.9c-0.9-1.8-1.9-3.6-2.9-5.3c-0.1-0.3-0.3-0.5-0.4-0.8c-1.2-2.1-2.6-4.1-4.8-5.1
								c-1.9-0.9-4.1-0.9-6.2-0.6c-2.1,0.3-4.1,1-6.1,1.4c-5.2,1-10.6,0.4-15.4-1.9C-0.1,379.4,1.6,381.6,3.6,383.3z"></path></g><g><g><path fill="#47a093" d="M3.6,383.3c2.7,2.3,6,4,9.6,4.7c5.6,1.1,11.7,0,17.1,2c1.3,0.5,2.6,1.2,3.8,2.1c0.8,0.6,1.7,1.8,2.7,2
									c-0.3-1.6-1.6-3.4-2.3-4.9c-0.9-1.8-1.9-3.6-2.9-5.3c-0.1-0.3-0.3-0.5-0.4-0.8c-0.2-0.1-0.3-0.2-0.5-0.2
									c-1.9-0.8-4.1-0.8-6.2-0.3c-2.1,0.4-4,1.2-6.1,1.7C13.5,385.5,8.3,385.1,3.6,383.3z"></path></g></g></g><g><g><path fill="#47a093" d="M39.6,411.1c0.1,0,0.2-0.1,0.3-0.1c0.9-0.4,1.6-1.4,2.3-1.9c1-0.8,2.1-1.5,3.2-2
								c0.2-0.1,0.3-0.1,0.5-0.2c5.3-2.2,11.4-1.3,17-2.6c6.1-1.5,11.5-5.9,14.1-11.6c-3.7,1.9-7.8,2.9-12,2.8
								c-1.1,0-2.2-0.1-3.3-0.3c-2.1-0.3-4.1-0.9-6.2-1.2c-2.1-0.3-4.3-0.2-6.1,0.8c-2.4,1.3-3.8,3.7-5,6.1
								c-0.9,1.8-1.8,3.6-2.7,5.4c-0.4,0.9-1,1.9-1.5,3C40,409.7,39.7,410.4,39.6,411.1z"></path></g><g><path fill="#53b0a6" d="M40,410.9c0.9-0.4,1.6-1.4,2.3-1.9c1-0.8,2.1-1.5,3.2-2c4.3-3.2,9.9-4.3,14.4-7.1
								c2-1.2,3.7-2.8,5.2-4.6c-1.1,0-2.2-0.1-3.3-0.3c-2.1-0.3-4.1-0.9-6.2-1.2c-2.1-0.3-4.3-0.2-6.1,0.8c-2.4,1.3-3.8,3.7-5,6.1
								c-0.9,1.8-1.8,3.6-2.7,5.4c-0.4,0.9-1,1.9-1.5,3C40.2,409.7,40.1,410.3,40,410.9z"></path></g></g><g><path fill="#53b0a6" d="M40.1,389.2c0,0.3,0,0.6,0.2,0.7c0.1-0.2,0.2-0.5,0.4-0.7c0.5-0.8,1.2-1.5,2.1-2
							c1.6-0.9,3.4-1.1,5.2-1.3c1.8-0.2,3.6-0.5,5.1-1.4c1.4-0.9,2.4-2.3,3.4-3.7c4-5.8,7.5-11.8,10.7-18.1c2.8-5.5,5.3-11.2,7.4-17
							c-0.1,0.4-1.9,1-2.3,1.2c-0.8,0.5-1.6,0.9-2.4,1.5c-1.6,1-3.2,2.1-4.8,3.3c-3,2.3-5.8,4.8-8.4,7.6
							c-5.2,5.5-9.5,11.9-12.6,18.9c-0.2,0.5-0.5,1.1-0.7,1.6c-0.6,1.4-1.1,2.8-1.6,4.3C41.4,384.9,40.2,387.8,40.1,389.2z"></path></g><g><path fill="#47a093" d="M40.1,389.2c0.2,0,0.4,0,0.6,0c0.5-0.8,1.2-1.5,2.1-2c1.6-0.9,3.4-1.1,5.2-1.3c1.8-0.2,3.6-0.5,5.1-1.4
							c1.4-0.9,2.4-2.3,3.4-3.7c4-5.8,7.5-11.8,10.7-18.1c-2.6,1.1-5.1,2.4-7.6,3.8c-6.1,3.6-11.6,8-16.3,13.3
							c-0.6,1.4-1.1,2.8-1.6,4.3C41.4,384.9,40.2,387.8,40.1,389.2z"></path></g><g><path fill="#47a093" d="M16.7,350.4c1.5,4.5,4,8.7,7.9,11.4c2.2,1.5,4.8,2.6,6.8,4.4c0.9,0.9,1.7,1.9,2.3,3
							c1.1,2.1,2.2,4.2,3.6,6.1c0.8,1.1,1.5,2.2,2.3,3.3l0,0c0.6-1,0.9-2.1,0.8-3.3c-0.2-3.8-0.5-7.7-0.7-11.5c0-0.3,0-0.7-0.1-1
							c-2.5-2.8-6-4.5-9.4-6.1C25.7,354.7,21.2,352.6,16.7,350.4z"></path></g><g><path fill="#53b0a6" d="M44.4,370.6l-1.3,3.1l-1.2,2.9l-0.1,2.9l-0.1,3.1l-0.3,6.1c-0.1,2-0.1,4.1-0.2,6.1c0,2,0,4.1,0,6.1l0,0
							l0,0c-0.1,0.9-0.2,1.8-0.2,2.8l-0.2,2.8l-0.4,5.5l0,0.1l0,0.1c-1.4,3.6-2.8,7.1-4.3,10.6l-2.2,5.3c-0.6,1.6-1.3,3.1-2,4.7
							h-2.5l0,0l0.1-0.3c0.8-1.8,1.5-3.5,2.3-5.2l2.4-5.2c1.5-3.5,3.1-6.9,4.8-10.3l0.8-5.3l0.4-2.7c0.1-0.9,0.2-1.8,0.4-2.7
							c0-2,0-4.1,0-6.1c0-2-0.1-4.1-0.2-6.1l-0.3-6.1l-0.1-3.1l-0.1-3.1l0-0.2L40,376l1.3-3.1l1.3-3.1c0.9-2,1.8-4.1,2.7-6.1
							c1.9-4,3.7-8.1,5.8-12l0.2,0.1c-1.4,4.2-2.9,8.4-4.5,12.5C46,366.5,45.2,368.6,44.4,370.6z"></path></g><g><path fill="#53b0a6" d="M36.7,402.7c-1,1.4-2.2,2.7-3.2,4.1c-1,1.4-1.7,2.9-1.8,4.5c-0.1,1.6,0.4,3.2,1.1,4.6
							c0.7,1.5,1.6,2.9,2.4,4.4c1.7,3,3.3,6.2,4.5,9.4c0.4,1,0.7,2,1,3h-2.3c-0.3-0.7-0.6-1.4-0.8-2.2c-0.3-0.8-0.6-1.6-1-2.4
							l-1-2.3c-0.7-1.6-1.4-3.1-2.2-4.6c-0.8-1.5-1.6-3.1-2.3-4.8c-0.6-1.7-1-3.6-0.7-5.4c0.1-0.9,0.5-1.8,0.9-2.6
							c0.4-0.8,0.9-1.5,1.5-2.2c1.1-1.4,2.3-2.6,3.2-4c0.9-1.4,1.6-3,2.1-4.6c0.5-1.6,0.7-3.3,0.9-4.9c0.2-1.7,0.2-3.3,0.1-5
							c0-0.8-0.1-1.7-0.2-2.5c-0.1-0.8-0.2-1.7-0.3-2.5c-0.4-3.4-1.2-6.7-1.7-10.2l0.2-0.1c1.3,3.2,2.4,6.5,3.1,9.9
							c0.7,3.4,1,7,0.5,10.5C40.3,396.5,38.8,399.9,36.7,402.7z"></path></g><g><path fill="#53b0a6" d="M39.5,405.6c-0.4,0.9-0.8,1.9-1.1,2.8c-0.7,1.9-1.1,3.9-1.3,6l-0.4,3c-0.1,0.5-0.1,1-0.2,1.5l-0.2,1.5
							c-0.1,0.5-0.1,1-0.2,1.5c-0.1,0.5-0.1,1-0.2,1.5c-0.1,1-0.2,2-0.3,3l-0.3,3c-0.1,0.5-0.1,1-0.1,1.5c0,0.5-0.1,1-0.1,1.5
							c0,0.1,0,0.2,0,0.3h-1.7c-0.2-2.2-0.3-4.3-0.2-6.5c0.1-2.1,0.5-4.1,0.9-6.2c0.4-2,1-4,1.6-6c0.7-2,1.3-3.9,1.8-5.9
							c0.3-1,0.5-2,0.7-3c0.2-1,0.5-2.1,0.6-2.9c0.1-0.9,0.1-1.8,0-2.7c-0.1-0.9-0.4-1.8-0.7-2.7c-0.7-1.7-1.9-3.3-3.6-4.5l0.1-0.2
							c4.1,1.1,7.1,6,6,10.5C40.4,403.8,39.9,404.6,39.5,405.6z"></path></g><g><g><path fill="#53b0a6" d="M44.5,334.3c0.2,2.5,0.7,4.9,1.6,7.3c1.1,3,2.9,5.8,3.6,9c0.2,1.1,0.3,2.3,0.3,3.5c0,0.6,0.7,1,1.2,0.6
								c0,0,0,0,0,0c0.1-0.1,0.1-0.1,0.2-0.2c0.2-0.4,0.3-0.8,0.5-1.2c0.7-1.8,1.3-3.6,1.8-5.4c1.1-4.5,1.4-9.5-0.3-13.8
								c-1.7-4.2-5.1-7.5-9-10C44.2,327.4,44.1,330.9,44.5,334.3z"></path></g><g><path fill="#47a093" d="M44.5,334.3c0.2,2.5,0.7,4.9,1.6,7.3c1.1,3,2.9,5.8,3.6,9c0.2,1.1,0.3,2.3,0.3,3.5c0,0.6,0.7,1,1.2,0.6
								c0,0,0,0,0,0c0.1-0.1,0.1-0.1,0.2-0.2c0.2-0.4,0.3-0.8,0.5-1.2c0.5-4.2,0.2-8.5-1.7-12.3C48.9,338.2,46.8,336.1,44.5,334.3z"></path></g></g><g><g><path fill="#47a093" d="M40.3,413.2c-0.1,0-0.2-0.1-0.4-0.1c-0.9-0.3-1.7-1.3-2.4-1.8c-1-0.7-2.2-1.3-3.3-1.8
								c-0.2-0.1-0.3-0.1-0.5-0.2c-5.5-1.8-11.5-0.4-17.1-1.4c-6.2-1-11.9-5-15-10.6c3.8,1.6,8,2.3,12.2,1.9
								c1.1-0.1,2.2-0.3,3.3-0.6c2-0.5,4-1.2,6.1-1.7c2.1-0.4,4.3-0.5,6.2,0.4c2.4,1.1,4,3.4,5.4,5.7c1.1,1.7,2.1,3.4,3.1,5.2
								c0.5,0.9,1.2,1.9,1.7,2.9C39.8,411.9,40.1,412.6,40.3,413.2z"></path></g><g><path fill="#53b0a6" d="M39.9,413.1c-0.9-0.3-1.7-1.3-2.4-1.8c-1-0.7-2.2-1.3-3.3-1.8c-4.5-2.9-10.2-3.5-14.9-6
								c-2.1-1.1-3.9-2.5-5.5-4.2c1.1-0.1,2.2-0.3,3.3-0.6c2-0.5,4-1.2,6.1-1.7c2.1-0.4,4.3-0.5,6.2,0.4c2.4,1.1,4,3.4,5.4,5.7
								c1.1,1.7,2.1,3.4,3.1,5.2c0.5,0.9,1.2,1.9,1.7,2.9C39.6,411.8,39.8,412.5,39.9,413.1z"></path></g></g></g><g><path fill="#ffa6bb" d="M52.6,424.3l-3.5,20.2c-0.2,1-1.1,1.8-2.1,1.8H25.2c-1,0-1.9-0.8-2.1-1.8l-0.4-2.6l-3.1-17.7
						c-0.2-1.3,0.8-2.5,2.1-2.5h28.8C51.8,421.8,52.8,422.9,52.6,424.3z"></path></g></g><g><path fill="#f58ea2" d="M52.6,424.3l-3.5,20.2c-0.2,1-1.1,1.8-2.1,1.8H25.2c-1,0-1.9-0.8-2.1-1.8l-0.4-2.6
					c2.3-0.4,4.6-0.5,6.7-1.4c3.2-1.5,5.2-4.8,7.3-7.6c3.3-4.5,7.6-8.3,12.4-11.1h1.4C51.8,421.8,52.8,422.9,52.6,424.3z"></path></g><g><g><path fill="#3e9385" d="M53.7,396.5c0.2,0.3,0.3,0.6,0.3,1c0,0.9-0.7,1.6-1.6,1.6c-0.3,0-0.5-0.1-0.8-0.2
						c0.3,0.4,0.8,0.7,1.3,0.7c0.9,0,1.6-0.7,1.6-1.6C54.5,397.3,54.2,396.8,53.7,396.5z"></path></g><g><path fill="#47a093" d="M54,397.5c0-0.4-0.1-0.7-0.3-1c-0.2-0.1-0.5-0.2-0.8-0.2c-0.9,0-1.6,0.7-1.6,1.6c0,0.4,0.1,0.7,0.3,1
						c0.2,0.1,0.5,0.2,0.8,0.2C53.3,399.1,54,398.4,54,397.5z"></path></g></g><g><g><path fill="#3e9385" d="M26.8,401.1c0.2,0.3,0.3,0.6,0.3,1c0,0.9-0.7,1.6-1.6,1.6c-0.3,0-0.5-0.1-0.8-0.2
						c0.3,0.4,0.8,0.7,1.3,0.7c0.9,0,1.6-0.7,1.6-1.6C27.7,401.9,27.3,401.3,26.8,401.1z"></path></g><g><path fill="#47a093" d="M27.1,402c0-0.4-0.1-0.7-0.3-1c-0.2-0.1-0.5-0.2-0.8-0.2c-0.9,0-1.6,0.7-1.6,1.6c0,0.4,0.1,0.7,0.3,1
						c0.2,0.1,0.5,0.2,0.8,0.2C26.4,403.7,27.1,402.9,27.1,402z"></path></g></g><g><g><path fill="#3e9385" d="M60,359.6c0.2,0.3,0.3,0.6,0.3,1c0,0.9-0.7,1.6-1.6,1.6c-0.3,0-0.5-0.1-0.8-0.2c0.3,0.4,0.8,0.7,1.3,0.7
						c0.9,0,1.6-0.7,1.6-1.6C60.9,360.4,60.5,359.9,60,359.6z"></path></g><g><path fill="#47a093" d="M60.3,360.6c0-0.4-0.1-0.7-0.3-1c-0.2-0.1-0.5-0.2-0.8-0.2c-0.9,0-1.6,0.7-1.6,1.6c0,0.4,0.1,0.7,0.3,1
						c0.2,0.1,0.5,0.2,0.8,0.2C59.6,362.2,60.3,361.5,60.3,360.6z"></path></g></g><g><g><path fill="#3e9385" d="M31.8,352c0.2,0.3,0.3,0.6,0.3,1c0,0.9-0.7,1.6-1.6,1.6c-0.3,0-0.5-0.1-0.8-0.2c0.3,0.4,0.8,0.7,1.3,0.7
						c0.9,0,1.6-0.7,1.6-1.6C32.7,352.8,32.3,352.3,31.8,352z"></path></g><g><path fill="#47a093" d="M32.1,353c0-0.4-0.1-0.7-0.3-1c-0.2-0.1-0.5-0.2-0.8-0.2c-0.9,0-1.6,0.7-1.6,1.6c0,0.4,0.1,0.7,0.3,1
						c0.2,0.1,0.5,0.2,0.8,0.2C31.4,354.6,32.1,353.9,32.1,353z"></path></g></g><g><g><path fill="#3e9385" d="M69.9,396.9c0.1,0.2,0.2,0.4,0.2,0.6c0,0.6-0.5,1-1,1c-0.2,0-0.3,0-0.5-0.1c0.2,0.3,0.5,0.4,0.8,0.4
						c0.6,0,1-0.5,1-1C70.5,397.5,70.2,397.1,69.9,396.9z"></path></g><g><path fill="#53b0a6" d="M70.1,397.5c0-0.2-0.1-0.4-0.2-0.6c-0.1-0.1-0.3-0.1-0.5-0.1c-0.6,0-1,0.5-1,1c0,0.2,0.1,0.4,0.2,0.6
						c0.1,0.1,0.3,0.1,0.5,0.1C69.6,398.6,70.1,398.1,70.1,397.5z"></path></g></g><g><g><path fill="#3e9385" d="M60.3,400.8c0.1,0.2,0.2,0.4,0.2,0.6c0,0.6-0.5,1-1,1c-0.2,0-0.3,0-0.5-0.1c0.2,0.3,0.5,0.4,0.8,0.4
						c0.6,0,1-0.5,1-1C60.9,401.4,60.6,401,60.3,400.8z"></path></g><g><path fill="#53b0a6" d="M60.5,401.5c0-0.2-0.1-0.4-0.2-0.6c-0.1-0.1-0.3-0.1-0.5-0.1c-0.6,0-1,0.5-1,1c0,0.2,0.1,0.4,0.2,0.6
						c0.1,0.1,0.3,0.1,0.5,0.1C60,402.5,60.5,402,60.5,401.5z"></path></g></g><g><g><path fill="#3e9385" d="M19.1,405.1c0.1,0.2,0.2,0.4,0.2,0.6c0,0.6-0.5,1-1,1c-0.2,0-0.3,0-0.5-0.1c0.2,0.3,0.5,0.4,0.8,0.4
						c0.6,0,1-0.5,1-1C19.7,405.6,19.5,405.2,19.1,405.1z"></path></g><g><path fill="#53b0a6" d="M19.3,405.7c0-0.2-0.1-0.4-0.2-0.6c-0.1-0.1-0.3-0.1-0.5-0.1c-0.6,0-1,0.5-1,1c0,0.2,0.1,0.4,0.2,0.6
						c0.1,0.1,0.3,0.1,0.5,0.1C18.9,406.7,19.3,406.3,19.3,405.7z"></path></g></g><g><g><path fill="#3e9385" d="M24.5,385c0.1,0.2,0.2,0.4,0.2,0.6c0,0.6-0.5,1-1,1c-0.2,0-0.3,0-0.5-0.1c0.2,0.3,0.5,0.4,0.8,0.4
						c0.6,0,1-0.5,1-1C25.1,385.5,24.9,385.1,24.5,385z"></path></g><g><path fill="#53b0a6" d="M24.7,385.6c0-0.2-0.1-0.4-0.2-0.6c-0.1-0.1-0.3-0.1-0.5-0.1c-0.6,0-1,0.5-1,1c0,0.2,0.1,0.4,0.2,0.6
						c0.1,0.1,0.3,0.1,0.5,0.1C24.3,386.6,24.7,386.2,24.7,385.6z"></path></g></g><g><g><path fill="#3e9385" d="M49.7,379.7c0.1,0.2,0.2,0.4,0.2,0.6c0,0.6-0.5,1-1,1c-0.2,0-0.3,0-0.5-0.1c0.2,0.3,0.5,0.4,0.8,0.4
						c0.6,0,1-0.5,1-1C50.2,380.2,50,379.9,49.7,379.7z"></path></g><g><path fill="#53b0a6" d="M49.9,380.3c0-0.2-0.1-0.4-0.2-0.6c-0.1-0.1-0.3-0.1-0.5-0.1c-0.6,0-1,0.5-1,1c0,0.2,0.1,0.4,0.2,0.6
						c0.1,0.1,0.3,0.1,0.5,0.1C49.4,381.4,49.9,380.9,49.9,380.3z"></path></g></g></g><g opacity=".5"><g><path fill="#ffb636" d="M257.9,108.7c-4.9,0-8.8-4-8.8-8.8c0-4.9,4-8.8,8.8-8.8c4.9,0,8.8,4,8.8,8.8
					C266.7,104.8,262.8,108.7,257.9,108.7z M257.9,95c-2.7,0-4.9,2.2-4.9,4.9c0,2.7,2.2,4.9,4.9,4.9c2.7,0,4.9-2.2,4.9-4.9
					C262.8,97.2,260.6,95,257.9,95z"></path></g></g><g opacity=".5"><g><path fill="#ffa6bb" d="M333.2,55.3c-0.5,0-1-0.2-1.4-0.6l-9.5-9.5c-0.8-0.8-0.8-2,0-2.8l9.5-9.5c0.8-0.8,2-0.8,2.8,0l9.5,9.5
					c0.8,0.8,0.8,2,0,2.8l-9.5,9.5C334.2,55.1,333.7,55.3,333.2,55.3z M326.4,43.8l6.8,6.8l6.8-6.8l-6.8-6.8L326.4,43.8z"></path></g></g><g opacity=".5"><g><path fill="#ffa6bb" d="M79.5,91.1c-0.3,0-0.6-0.1-0.9-0.3c-0.6-0.4-1-1.1-1-1.8L79,70c0-0.7,0.5-1.4,1.2-1.7
					c0.7-0.3,1.5-0.2,2,0.3L94.1,79c0.5,0.4,0.7,1,0.7,1.6s-0.4,1.2-0.9,1.5l-13.1,8.7C80.4,91,80,91.1,79.5,91.1z M82.6,74.2
					l-0.7,11.1l7.6-5.1L82.6,74.2z"></path></g></g><g><g><g><path fill="#d6d4f6" d="M139.7,95.5l6.5,18.1c0.7,2.1,3,3.2,5.1,2.4l10.8-3.9l11.1,5.7l-3-8.5l4.1-1.5c2.1-0.7,3.2-3,2.4-5.1
						l-6.5-18.1c-0.7-2.1-3-3.2-5.1-2.4l-22.9,8.2C140,91.1,138.9,93.4,139.7,95.5z"></path></g></g><g><path fill="#e8468a" d="M148.5,99.7c0.4,1.2,1.3,2.3,2.6,2.9l0.8,0.4l9.2,4.3l4.3-9.2l0.4-0.8c0.6-1.3,0.6-2.7,0.2-3.9
					s-1.3-2.3-2.6-2.9c-2.5-1.2-5.5-0.1-6.7,2.4l-0.4,0.8l-0.8-0.4c-2.5-1.2-5.5-0.1-6.7,2.4C148.1,97.1,148.1,98.4,148.5,99.7z"></path></g></g><g><g><g><g><path fill="#e1e0ff" d="M228.8,29.1l-10.3,16.8c-1.3,2.1-0.6,4.9,1.5,6.2l65.4,40.1l5.3,17.6l6.4-10.5l7.7,4.7
							c2.1,1.3,4.9,0.6,6.2-1.5l10.3-16.8c1.3-2.1,0.6-4.9-1.5-6.2L235,27.6C232.9,26.3,230.1,27,228.8,29.1z"></path></g></g><g><g><path fill="#ffa6bb" d="M276.4,66.8l-4.2,0.3c-0.2,0-0.3,0.1-0.3,0.3l-1,4c-0.1,0.4-0.6,0.4-0.7,0.1l-1.6-3.8
							c-0.1-0.1-0.2-0.2-0.4-0.2l-4.2,0.3c-0.4,0-0.5-0.4-0.3-0.6l3.2-2.7c0.1-0.1,0.2-0.3,0.1-0.4l-1.6-3.8
							c-0.1-0.3,0.2-0.6,0.5-0.5l3.6,2.2c0.1,0.1,0.3,0.1,0.4,0l3.2-2.7c0.3-0.2,0.7,0,0.6,0.4l-1,4.1c0,0.2,0,0.3,0.2,0.4l3.6,2.2
							C276.9,66.3,276.8,66.8,276.4,66.8z"></path></g><g><path fill="#ffa6bb" d="M242.9,46.3l-4.2,0.3c-0.2,0-0.3,0.1-0.3,0.3l-1,4c-0.1,0.4-0.6,0.4-0.7,0.1l-1.6-3.8
							c-0.1-0.1-0.2-0.2-0.4-0.2l-4.2,0.3c-0.4,0-0.5-0.4-0.3-0.6l3.2-2.7c0.1-0.1,0.2-0.3,0.1-0.4l-1.6-3.8
							c-0.1-0.3,0.2-0.6,0.5-0.5l3.6,2.2c0.1,0.1,0.3,0.1,0.4,0l3.2-2.7c0.3-0.2,0.7,0,0.6,0.4l-1,4.1c0,0.2,0,0.3,0.2,0.4l3.6,2.2
							C243.3,45.8,243.2,46.3,242.9,46.3z"></path></g><g><path fill="#ffa6bb" d="M259.7,56.6l-4.2,0.3c-0.2,0-0.3,0.1-0.3,0.3l-1,4c-0.1,0.4-0.6,0.4-0.7,0.1l-1.6-3.8
							c-0.1-0.1-0.2-0.2-0.4-0.2l-4.2,0.3c-0.4,0-0.5-0.4-0.3-0.6l3.2-2.7c0.1-0.1,0.2-0.3,0.1-0.4l-1.6-3.8
							c-0.1-0.3,0.2-0.6,0.5-0.5l3.6,2.2c0.1,0.1,0.3,0.1,0.4,0l3.2-2.7c0.3-0.2,0.7,0,0.6,0.4l-1,4.1c0,0.2,0,0.3,0.2,0.4l3.6,2.2
							C260.1,56.1,260,56.5,259.7,56.6z"></path></g><g><path fill="#ffa6bb" d="M289,77.4c-0.2,0-0.3,0.1-0.3,0.3l-1,4c-0.1,0.4-0.6,0.4-0.7,0.1l-1.6-3.8c-0.1-0.1-0.2-0.2-0.4-0.2
							l-4.2,0.3c-0.4,0-0.5-0.4-0.3-0.6l3.2-2.7c0.1-0.1,0.2-0.3,0.1-0.4l-1.6-3.8c-0.1-0.3,0.2-0.6,0.5-0.5l3.6,2.2
							c0.1,0.1,0.3,0.1,0.4,0l3.2-2.7c0.3-0.2,0.7,0,0.6,0.4l-1,4.1c0,0.2,0,0.3,0.2,0.4l3.6,2.2c0.3,0.2,0.2,0.7-0.2,0.7L289,77.4z
							"></path></g><g><path fill="#c5c2f2" d="M305.4,87.5c-0.2,0-0.3,0.1-0.3,0.3l-1,4c-0.1,0.4-0.6,0.4-0.7,0.1l-1.6-3.8c-0.1-0.1-0.2-0.2-0.4-0.2
							l-4.2,0.3c-0.4,0-0.5-0.4-0.3-0.6l3.2-2.7c0.1-0.1,0.2-0.3,0.1-0.4l-1.6-3.8c-0.1-0.3,0.2-0.6,0.5-0.5l3.6,2.2
							c0.1,0.1,0.3,0.1,0.4,0l3.2-2.7c0.3-0.2,0.7,0,0.6,0.4l-1,4.1c0,0.2,0,0.3,0.2,0.4l3.6,2.2c0.3,0.2,0.2,0.7-0.2,0.7
							L305.4,87.5z"></path></g></g></g></g><g><g><path fill="#d6d4f6" d="M322.3,334.8c2.1,2.5,3.3,5.8,3.3,9.3c0,8.1-6.6,14.7-14.7,14.7c-8.1,0-14.7-6.6-14.7-14.7
					c0-2.3,0.5-4.4,1.4-6.3l-3.5-2.4c-1.4,2.6-2.1,5.5-2.1,8.7c0,10.4,8.5,18.8,18.8,18.8c10.4,0,18.8-8.5,18.8-18.8
					c0-4.6-1.6-8.8-4.4-12L322.3,334.8z"></path></g><g><path fill="#6273ff" d="M310.9,329.3c3.8,0,7.3,1.5,10,3.9l3.1-2.8c-3.4-3.3-8-5.3-13.1-5.3c-6.5,0-12.3,3.3-15.7,8.4l3.4,2.4
					C301.3,332,305.8,329.3,310.9,329.3z"></path></g><g><path fill="#f58ea2" d="M356.5,329.3c3.8,0,7.3,1.5,9.9,3.9l2.9-3c-3.4-3.1-7.9-5-12.8-5c-6.1,0-11.5,2.9-14.9,7.3l3.5,2.3
					C347.8,331.5,351.9,329.3,356.5,329.3z"></path></g><g><path fill="#d6d4f6" d="M356.5,358.7c-8.1,0-14.7-6.6-14.7-14.7c0-2.8,0.8-5.3,2.1-7.6l-3.5-2.3c-1.7,2.9-2.8,6.2-2.8,9.8
					c0,10.4,8.5,18.8,18.8,18.8c6.1,0,11.5-2.9,14.9-7.3l-3.4-2.4C365.3,356.5,361.2,358.7,356.5,358.7z"></path></g><g><path fill="#e8468a" d="M367.9,334.7c2.1,2.5,3.3,5.8,3.3,9.3c0,2.7-0.7,5.2-2,7.4l3.4,2.4c1.7-2.9,2.8-6.2,2.8-9.8
					c0-4.7-1.7-9-4.6-12.3L367.9,334.7z"></path></g><g><path fill="#d6d4f6" d="M333.2,281.8v4.2c7.8,0.3,14.1,6.8,14.1,14.7c0,8.1-6.6,14.7-14.7,14.7c-7.8,0-14.3-6.2-14.6-13.9h-4.2
					c0.4,10,8.7,18.1,18.8,18.1c10.4,0,18.8-8.5,18.8-18.8C351.4,290.5,343.3,282.1,333.2,281.8z"></path></g></g></g></g></svg>